REM DIRINDEX 1\6,1\2\7,1\2\8,1\2\9,1\3\10,1\3\11,1\4\12,1\4\13,1\4\14,1\5\15,1\5\16,1\5\17
REM DIRNAME folder01,folder02,folder03,folder04,folder05,folder06,folder07,folder08,folder09,folder10,folder11,folder12,folder13,folder14,folder15,folder16,folder17
TITLE ""
FILE "3Q_t2_0675-0690.mp3" MP3
  TRACK 01 AUDIO
    TITLE "7:cjc041_5443"
    INDEX 01 00:00:00
  TRACK 02 AUDIO
    TITLE "0:"
    INDEX 01 00:01:07
  TRACK 03 AUDIO
    TITLE "8:cjc041_5444"
    INDEX 01 00:01:64
  TRACK 04 AUDIO
    TITLE "0:"
    INDEX 01 00:02:59
  TRACK 05 AUDIO
    TITLE "9:cjc041_5445"
    INDEX 01 00:03:37
  TRACK 06 AUDIO
    TITLE "0:"
    INDEX 01 00:04:56
  TRACK 07 AUDIO
    TITLE "7:cjc041_5446"
    INDEX 01 00:06:37
  TRACK 08 AUDIO
    TITLE "0:"
    INDEX 01 00:07:49
  TRACK 09 AUDIO
    TITLE "8:cjc041_5447"
    INDEX 01 00:08:32
  TRACK 10 AUDIO
    TITLE "0:"
    INDEX 01 00:09:45
  TRACK 11 AUDIO
    TITLE "9:cjc041_5448"
    INDEX 01 00:10:31
  TRACK 12 AUDIO
    TITLE "0:"
    INDEX 01 00:11:46
  TRACK 13 AUDIO
    TITLE "7:cjc041_5449"
    INDEX 01 00:13:26
  TRACK 14 AUDIO
    TITLE "0:"
    INDEX 01 00:14:33
  TRACK 15 AUDIO
    TITLE "8:cjc041_5450"
    INDEX 01 00:15:17
  TRACK 16 AUDIO
    TITLE "0:"
    INDEX 01 00:17:12
  TRACK 17 AUDIO
    TITLE "9:cjc041_5451"
    INDEX 01 00:17:61
  TRACK 18 AUDIO
    TITLE "0:"
    INDEX 01 00:18:70
  TRACK 19 AUDIO
    TITLE "7:cjc041_5452"
    INDEX 01 00:20:51
  TRACK 20 AUDIO
    TITLE "0:"
    INDEX 01 00:21:60
  TRACK 21 AUDIO
    TITLE "8:cjc041_5453"
    INDEX 01 00:22:34
  TRACK 22 AUDIO
    TITLE "0:"
    INDEX 01 00:23:36
  TRACK 23 AUDIO
    TITLE "9:cjc041_5454"
    INDEX 01 00:24:14
  TRACK 24 AUDIO
    TITLE "0:"
    INDEX 01 00:25:27
  TRACK 25 AUDIO
    TITLE "7:cjc041_5455"
    INDEX 01 00:26:71
  TRACK 26 AUDIO
    TITLE "0:"
    INDEX 01 00:28:17
  TRACK 27 AUDIO
    TITLE "8:cjc041_5456"
    INDEX 01 00:28:64
  TRACK 28 AUDIO
    TITLE "0:"
    INDEX 01 00:31:00
  TRACK 29 AUDIO
    TITLE "9:cjc041_5457"
    INDEX 01 00:31:49
  TRACK 30 AUDIO
    TITLE "0:"
    INDEX 01 00:32:70
  TRACK 31 AUDIO
    TITLE "7:cjc041_5458"
    INDEX 01 00:34:43
  TRACK 32 AUDIO
    TITLE "0:"
    INDEX 01 00:35:49
  TRACK 33 AUDIO
    TITLE "8:cjc041_5459"
    INDEX 01 00:36:33
  TRACK 34 AUDIO
    TITLE "0:"
    INDEX 01 00:39:23
  TRACK 35 AUDIO
    TITLE "9:cjc041_5460"
    INDEX 01 00:40:01
  TRACK 36 AUDIO
    TITLE "0:"
    INDEX 01 00:41:12
  TRACK 37 AUDIO
    TITLE "7:cjc041_5461"
    INDEX 01 00:42:68
  TRACK 38 AUDIO
    TITLE "0:"
    INDEX 01 00:44:14
  TRACK 39 AUDIO
    TITLE "8:cjc041_5462"
    INDEX 01 00:44:69
  TRACK 40 AUDIO
    TITLE "0:"
    INDEX 01 00:46:09
  TRACK 41 AUDIO
    TITLE "9:cjc041_5463"
    INDEX 01 00:46:64
  TRACK 42 AUDIO
    TITLE "0:"
    INDEX 01 00:48:12
  TRACK 43 AUDIO
    TITLE "7:cjc041_5464"
    INDEX 01 00:49:72
  TRACK 44 AUDIO
    TITLE "0:"
    INDEX 01 00:51:26
  TRACK 45 AUDIO
    TITLE "8:cjc041_5465"
    INDEX 01 00:52:02
  TRACK 46 AUDIO
    TITLE "0:"
    INDEX 01 00:53:47
  TRACK 47 AUDIO
    TITLE "9:cjc041_5466"
    INDEX 01 00:54:19
  TRACK 48 AUDIO
    TITLE "0:"
    INDEX 01 00:55:50
  TRACK 49 AUDIO
    TITLE "7:cjc041_5467"
    INDEX 01 00:57:29
  TRACK 50 AUDIO
    TITLE "0:"
    INDEX 01 00:58:56
  TRACK 51 AUDIO
    TITLE "8:cjc041_5468"
    INDEX 01 00:59:41
  TRACK 52 AUDIO
    TITLE "0:"
    INDEX 01 01:00:43
  TRACK 53 AUDIO
    TITLE "9:cjc041_5469"
    INDEX 01 01:01:23
  TRACK 54 AUDIO
    TITLE "0:"
    INDEX 01 01:02:57
  TRACK 55 AUDIO
    TITLE "7:cjc041_5470"
    INDEX 01 01:04:35
  TRACK 56 AUDIO
    TITLE "0:"
    INDEX 01 01:05:48
  TRACK 57 AUDIO
    TITLE "8:cjc041_5471"
    INDEX 01 01:06:24
  TRACK 58 AUDIO
    TITLE "0:"
    INDEX 01 01:08:35
  TRACK 59 AUDIO
    TITLE "9:cjc041_5472"
    INDEX 01 01:09:09
  TRACK 60 AUDIO
    TITLE "0:"
    INDEX 01 01:10:22
  TRACK 61 AUDIO
    TITLE "7:cjc041_5473"
    INDEX 01 01:12:03
  TRACK 62 AUDIO
    TITLE "0:"
    INDEX 01 01:13:26
  TRACK 63 AUDIO
    TITLE "8:cjc041_5474"
    INDEX 01 01:14:00
  TRACK 64 AUDIO
    TITLE "0:"
    INDEX 01 01:16:11
  TRACK 65 AUDIO
    TITLE "9:cjc041_5475"
    INDEX 01 01:16:60
  TRACK 66 AUDIO
    TITLE "0:"
    INDEX 01 01:18:06
  TRACK 67 AUDIO
    TITLE "7:cjc041_5476"
    INDEX 01 01:19:60
  TRACK 68 AUDIO
    TITLE "0:"
    INDEX 01 01:20:69
  TRACK 69 AUDIO
    TITLE "8:cjc041_5477"
    INDEX 01 01:21:47
  TRACK 70 AUDIO
    TITLE "0:"
    INDEX 01 01:22:35
  TRACK 71 AUDIO
    TITLE "9:cjc041_5478"
    INDEX 01 01:23:18
  TRACK 72 AUDIO
    TITLE "0:"
    INDEX 01 01:24:28
  TRACK 73 AUDIO
    TITLE "7:cjc041_5479"
    INDEX 01 01:26:11
  TRACK 74 AUDIO
    TITLE "0:"
    INDEX 01 01:27:36
  TRACK 75 AUDIO
    TITLE "8:cjc041_5480"
    INDEX 01 01:28:12
  TRACK 76 AUDIO
    TITLE "0:"
    INDEX 01 01:29:13
  TRACK 77 AUDIO
    TITLE "9:cjc041_5481"
    INDEX 01 01:29:64
  TRACK 78 AUDIO
    TITLE "0:"
    INDEX 01 01:31:16
  TRACK 79 AUDIO
    TITLE "7:cjc041_5482"
    INDEX 01 01:32:70
  TRACK 80 AUDIO
    TITLE "0:"
    INDEX 01 01:34:08
  TRACK 81 AUDIO
    TITLE "8:cjc041_5483"
    INDEX 01 01:34:65
  TRACK 82 AUDIO
    TITLE "0:"
    INDEX 01 01:36:09
  TRACK 83 AUDIO
    TITLE "9:cjc041_5484"
    INDEX 01 01:36:60
  TRACK 84 AUDIO
    TITLE "0:"
    INDEX 01 01:38:02
  TRACK 85 AUDIO
    TITLE "7:cjc041_5485"
    INDEX 01 01:39:61
  TRACK 86 AUDIO
    TITLE "0:"
    INDEX 01 01:41:38
  TRACK 87 AUDIO
    TITLE "8:cjc041_5486"
    INDEX 01 01:42:08
  TRACK 88 AUDIO
    TITLE "0:"
    INDEX 01 01:43:27
  TRACK 89 AUDIO
    TITLE "9:cjc041_5487"
    INDEX 01 01:44:05
  TRACK 90 AUDIO
    TITLE "0:"
    INDEX 01 01:45:55
  TRACK 91 AUDIO
    TITLE "7:cjc041_5488"
    INDEX 01 01:47:33
  TRACK 92 AUDIO
    TITLE "0:"
    INDEX 01 01:48:61
  TRACK 93 AUDIO
    TITLE "8:cjc041_5489"
    INDEX 01 01:49:33
  TRACK 94 AUDIO
    TITLE "0:"
    INDEX 01 01:50:39
  TRACK 95 AUDIO
    TITLE "9:cjc041_5490"
    INDEX 01 01:51:11
  TRACK 96 AUDIO
    TITLE "0:"
    INDEX 01 01:52:34
